<?xml version="1.0" standalone="no"?>
<!DOCTYPE svg PUBLIC "-//W3C//DTD SVG 20010904//EN"
 "http://www.w3.org/TR/2001/REC-SVG-20010904/DTD/svg10.dtd">
<svg version="1.0" xmlns="http://www.w3.org/2000/svg"
 width="32.000000pt" height="32.000000pt" viewBox="0 0 32.000000 32.000000"
 preserveAspectRatio="xMidYMid meet">

<g transform="translate(0.000000,32.000000) scale(0.100000,-0.100000)"
fill="#000000" stroke="none">
<path d="M24 247 c-3 -8 -4 -52 -2 -98 l3 -84 135 0 135 0 0 95 0 95 -133 3
c-104 2 -134 0 -138 -11z m256 -14 c0 -5 -27 -22 -59 -40 l-59 -31 -61 31
c-33 18 -61 35 -61 40 0 4 54 7 120 7 66 0 120 -3 120 -7z m-197 -52 c15 -8
27 -17 27 -20 0 -3 -16 -16 -35 -29 l-35 -22 0 46 c0 25 3 44 8 42 4 -2 19
-10 35 -17z m197 -26 l0 -45 -35 22 c-19 13 -35 26 -35 29 0 4 54 35 68 38 1
1 2 -19 2 -44z m-42 -40 c23 -15 42 -29 42 -31 0 -2 -55 -4 -122 -4 l-123 0
48 34 c58 41 94 42 155 1z"/>
</g>
</svg>
